<?xml version="1.0" encoding="utf-8"?>
<!-- Generator: Adobe Illustrator 21.0.0, SVG Export Plug-In . SVG Version: 6.00 Build 0)  -->
<svg version="1.1" id="Layer_1" xmlns="http://www.w3.org/2000/svg" xmlns:xlink="http://www.w3.org/1999/xlink" x="0px" y="0px"
	 viewBox="0 0 1920 234" style="enable-background:new 0 0 1920 234;" xml:space="preserve">
<style type="text/css">
	.st0{fill:#FFFFFF;}
</style>
<g transform="translate(0.000000,234.000000) scale(0.100000,-0.100000)">
	<path class="st0" d="M7904,2316c-241-63-448-191-723-450c-132-124-215-176-280-176c-56,0-127,39-240,131c-189,154-226,181-301,217
		l-75,37h-145c-133,0-151-2-219-27c-88-32-204-100-298-176c-95-76-128-96-210-125c-282-102-644-79-999,63c-149,59-213,69-301,46
		c-99-25-169-66-375-221c-265-199-351-242-538-270c-174-27-338-13-524,44c-129,40-245,43-321,7c-52-24-122-92-150-145
		c-22-43-83-85-163-113c-60-21-85-23-237-23c-156,1-184,4-347,38c-154,32-196,37-311,37c-212,0-388-38-602-130
		c-164-70-328-166-499-292L1,755L0,378V0h9600h9600v525v525l-107,108c-193,194-371,296-591,338c-99,19-336,18-448-1
		c-176-31-417-128-604-244c-47-29-148-97-225-151c-209-146-289-180-421-180c-97,0-199,31-474,142c-426,172-539,208-775,244
		c-165,25-523,25-725,0c-96-12-170-16-220-11c-260,22-518,144-670,316c-303,343-410,404-705,402c-278-1-405-55-677-288
		c-161-138-242-192-347-229c-77-27-98-30-196-29c-264,2-555,137-992,461c-152,112-225,153-342,192c-166,56-358,52-540-11
		c-47-17-185-79-306-140c-326-162-424-189-568-155c-130,31-195,68-580,335c-122,85-247,147-345,172C8230,2349,8026,2347,7904,2316z"
		/>
</g>
</svg>
