<svg height="145" viewBox="0 0 185 145" width="185" xmlns="http://www.w3.org/2000/svg" xmlns:xlink="http://www.w3.org/1999/xlink"><linearGradient id="a" gradientUnits="objectBoundingBox" x1=".5" x2=".5" y2="1"><stop offset="0" stop-color="#dc4985"/><stop offset="1" stop-color="#f18da2"/></linearGradient><g fill="url(#a)"><circle cx="2.5" cy="2.5" r="2.5"/><circle cx="2.5" cy="2.5" r="2.5" transform="translate(20)"/><circle cx="2.5" cy="2.5" r="2.5" transform="translate(40)"/><circle cx="2.5" cy="2.5" r="2.5" transform="translate(60)"/><circle cx="2.5" cy="2.5" r="2.5" transform="translate(80)"/><circle cx="2.5" cy="2.5" r="2.5" transform="translate(100)"/><circle cx="2.5" cy="2.5" r="2.5" transform="translate(120)"/><circle cx="2.5" cy="2.5" r="2.5" transform="translate(140)"/><circle cx="2.5" cy="2.5" r="2.5" transform="translate(160)"/><circle cx="2.5" cy="2.5" r="2.5" transform="translate(180)"/><circle cx="2.5" cy="2.5" r="2.5" transform="translate(0 20)"/><circle cx="2.5" cy="2.5" r="2.5" transform="translate(20 20)"/><circle cx="2.5" cy="2.5" r="2.5" transform="translate(40 20)"/><circle cx="2.5" cy="2.5" r="2.5" transform="translate(60 20)"/><circle cx="2.5" cy="2.5" r="2.5" transform="translate(80 20)"/><circle cx="2.5" cy="2.5" r="2.5" transform="translate(100 20)"/><circle cx="2.5" cy="2.5" r="2.5" transform="translate(120 20)"/><circle cx="2.5" cy="2.5" r="2.5" transform="translate(140 20)"/><circle cx="2.5" cy="2.5" r="2.5" transform="translate(160 20)"/><circle cx="2.5" cy="2.5" r="2.5" transform="translate(180 20)"/><circle cx="2.5" cy="2.5" r="2.5" transform="translate(0 40)"/><circle cx="2.5" cy="2.5" r="2.5" transform="translate(20 40)"/><circle cx="2.5" cy="2.5" r="2.5" transform="translate(40 40)"/><circle cx="2.5" cy="2.5" r="2.5" transform="translate(60 40)"/><circle cx="2.5" cy="2.5" r="2.5" transform="translate(80 40)"/><circle cx="2.5" cy="2.5" r="2.5" transform="translate(100 40)"/><circle cx="2.5" cy="2.5" r="2.5" transform="translate(120 40)"/><circle cx="2.5" cy="2.5" r="2.5" transform="translate(140 40)"/><circle cx="2.5" cy="2.5" r="2.5" transform="translate(160 40)"/><circle cx="2.5" cy="2.5" r="2.5" transform="translate(180 40)"/><circle cx="2.5" cy="2.5" r="2.5" transform="translate(0 60)"/><circle cx="2.5" cy="2.5" r="2.5" transform="translate(20 60)"/><circle cx="2.5" cy="2.5" r="2.5" transform="translate(40 60)"/><circle cx="2.5" cy="2.5" r="2.5" transform="translate(60 60)"/><circle cx="2.5" cy="2.5" r="2.5" transform="translate(80 60)"/><circle cx="2.5" cy="2.5" r="2.5" transform="translate(100 60)"/><circle cx="2.5" cy="2.5" r="2.5" transform="translate(120 60)"/><circle cx="2.5" cy="2.5" r="2.5" transform="translate(140 60)"/><circle cx="2.5" cy="2.5" r="2.5" transform="translate(160 60)"/><circle cx="2.5" cy="2.5" r="2.5" transform="translate(180 60)"/><circle cx="2.5" cy="2.5" r="2.5" transform="translate(0 80)"/><circle cx="2.5" cy="2.5" r="2.5" transform="translate(20 80)"/><circle cx="2.5" cy="2.5" r="2.5" transform="translate(40 80)"/><circle cx="2.5" cy="2.5" r="2.5" transform="translate(60 80)"/><circle cx="2.5" cy="2.5" r="2.5" transform="translate(80 80)"/><circle cx="2.5" cy="2.5" r="2.5" transform="translate(100 80)"/><circle cx="2.5" cy="2.5" r="2.5" transform="translate(120 80)"/><circle cx="2.5" cy="2.5" r="2.5" transform="translate(140 80)"/><circle cx="2.5" cy="2.5" r="2.5" transform="translate(160 80)"/><circle cx="2.5" cy="2.5" r="2.5" transform="translate(180 80)"/><circle cx="2.5" cy="2.5" r="2.5" transform="translate(0 100)"/><circle cx="2.5" cy="2.5" r="2.5" transform="translate(20 100)"/><circle cx="2.5" cy="2.5" r="2.5" transform="translate(40 100)"/><circle cx="2.5" cy="2.5" r="2.5" transform="translate(60 100)"/><circle cx="2.5" cy="2.5" r="2.5" transform="translate(80 100)"/><circle cx="2.5" cy="2.5" r="2.5" transform="translate(100 100)"/><circle cx="2.5" cy="2.5" r="2.5" transform="translate(120 100)"/><circle cx="2.5" cy="2.5" r="2.5" transform="translate(140 100)"/><circle cx="2.5" cy="2.5" r="2.5" transform="translate(160 100)"/><circle cx="2.5" cy="2.5" r="2.5" transform="translate(180 100)"/><circle cx="2.5" cy="2.5" r="2.5" transform="translate(0 120)"/><circle cx="2.5" cy="2.5" r="2.5" transform="translate(20 120)"/><circle cx="2.5" cy="2.5" r="2.5" transform="translate(40 120)"/><circle cx="2.5" cy="2.5" r="2.5" transform="translate(60 120)"/><circle cx="2.5" cy="2.5" r="2.5" transform="translate(80 120)"/><circle cx="2.5" cy="2.5" r="2.5" transform="translate(100 120)"/><circle cx="2.5" cy="2.5" r="2.5" transform="translate(120 120)"/><circle cx="2.5" cy="2.5" r="2.5" transform="translate(140 120)"/><circle cx="2.5" cy="2.5" r="2.5" transform="translate(160 120)"/><circle cx="2.5" cy="2.5" r="2.5" transform="translate(180 120)"/><circle cx="2.5" cy="2.5" r="2.5" transform="translate(0 140)"/><circle cx="2.5" cy="2.5" r="2.5" transform="translate(20 140)"/><circle cx="2.5" cy="2.5" r="2.5" transform="translate(40 140)"/><circle cx="2.5" cy="2.5" r="2.5" transform="translate(60 140)"/><circle cx="2.5" cy="2.5" r="2.5" transform="translate(80 140)"/><circle cx="2.5" cy="2.5" r="2.5" transform="translate(100 140)"/><circle cx="2.5" cy="2.5" r="2.5" transform="translate(120 140)"/><circle cx="2.5" cy="2.5" r="2.5" transform="translate(140 140)"/><circle cx="2.5" cy="2.5" r="2.5" transform="translate(160 140)"/><circle cx="2.5" cy="2.5" r="2.5" transform="translate(180 140)"/></g></svg>