<svg height="455" viewBox="0 0 1170 455" width="1170" xmlns="http://www.w3.org/2000/svg" xmlns:xlink="http://www.w3.org/1999/xlink"><linearGradient id="a" gradientUnits="objectBoundingBox" x1=".5" x2=".5" y2="1"><stop offset="0" stop-color="#dc4985"/><stop offset="1" stop-color="#f18da2"/></linearGradient><clipPath id="b"><path d="m39-70 1092 70a39 39 0 0 1 39 39v307a39 39 0 0 1 -39 39h-1092a39 39 0 0 1 -39-39v-377a39 39 0 0 1 39-39z" transform="translate(9722 18228)"/></clipPath><g transform="translate(-9722 -18158)"><path d="m39-70 1092 70a39 39 0 0 1 39 39v307a39 39 0 0 1 -39 39h-1092a39 39 0 0 1 -39-39v-377a39 39 0 0 1 39-39z" fill="url(#a)" transform="translate(9722 18228)"/><g clip-path="url(#b)" fill="#fff"><circle cx="115.5" cy="115.5" opacity=".06" r="115.5" transform="translate(9661 18043)"/><circle cx="167.5" cy="167.5" opacity=".06" r="167.5" transform="translate(9609 17991)"/><circle cx="227.5" cy="227.5" opacity=".06" r="227.5" transform="translate(9549 17931)"/></g></g></svg>