<svg width="208" height="59" viewBox="0 0 208 59" fill="none" xmlns="http://www.w3.org/2000/svg">
<path d="M23.1717 0.00225275H2.10801C1.83111 0.00198299 1.55687 0.0563243 1.30099 0.162166C1.04512 0.268008 0.812623 0.423273 0.616822 0.619074C0.421021 0.814875 0.265757 1.04737 0.159915 1.30325C0.0540725 1.55912 -0.000268756 1.83336 9.99408e-07 2.11027V23.174C-0.000268756 23.4509 0.0540725 23.7251 0.159915 23.981C0.265757 24.2369 0.421021 24.4694 0.616822 24.6652C0.812623 24.861 1.04512 25.0163 1.30099 25.1221C1.55687 25.2279 1.83111 25.2823 2.10801 25.282H23.1717C23.4493 25.2834 23.7245 25.2298 23.9813 25.1245C24.2381 25.0191 24.4716 24.864 24.6682 24.6681C24.8649 24.4722 25.0209 24.2393 25.1273 23.9829C25.2336 23.7265 25.2882 23.4516 25.288 23.174V2.11027C25.2882 1.83267 25.2336 1.55776 25.1273 1.30134C25.0209 1.04493 24.8649 0.81207 24.6682 0.616161C24.4716 0.420253 24.2381 0.265159 23.9813 0.159802C23.7245 0.0544439 23.4493 0.000901122 23.1717 0.00225275V0.00225275ZM21.074 21.0762H4.21398V4.21623H21.074V21.0762Z" fill="url(#paint0_linear)"/>
<path d="M23.1717 33.7202H2.10801C1.83111 33.72 1.55687 33.7743 1.30099 33.8801C1.04512 33.986 0.812623 34.1413 0.616822 34.3371C0.421021 34.5329 0.265757 34.7654 0.159915 35.0213C0.0540725 35.2771 -0.000268756 35.5514 9.99408e-07 35.8283V56.892C-0.000268756 57.1689 0.0540725 57.4431 0.159915 57.699C0.265757 57.9549 0.421021 58.1874 0.616822 58.3832C0.812623 58.579 1.04512 58.7343 1.30099 58.8401C1.55687 58.946 1.83111 59.0003 2.10801 59H23.1717C23.4487 59.0003 23.7229 58.946 23.9788 58.8401C24.2346 58.7343 24.4671 58.579 24.6629 58.3832C24.8587 58.1874 25.014 57.9549 25.1198 57.699C25.2257 57.4431 25.28 57.1689 25.2798 56.892V35.8283C25.28 35.5514 25.2257 35.2771 25.1198 35.0213C25.014 34.7654 24.8587 34.5329 24.6629 34.3371C24.4671 34.1413 24.2346 33.986 23.9788 33.8801C23.7229 33.7743 23.4487 33.72 23.1717 33.7202ZM21.0637 54.7942H4.21398V37.9342H21.074L21.0637 54.7942Z" fill="url(#paint1_linear)"/>
<path d="M56.8897 33.7202H35.826C35.5491 33.72 35.2749 33.7743 35.019 33.8801C34.7631 33.986 34.5306 34.1413 34.3348 34.3371C34.139 34.5329 33.9837 34.7654 33.8779 35.0213C33.772 35.2771 33.7177 35.5514 33.718 35.8283V56.892C33.7177 57.1689 33.772 57.4431 33.8779 57.699C33.9837 57.9549 34.139 58.1874 34.3348 58.3832C34.5306 58.579 34.7631 58.7343 35.019 58.8401C35.2749 58.946 35.5491 59.0003 35.826 59H56.8897C57.1666 59.0003 57.4408 58.946 57.6967 58.8401C57.9526 58.7343 58.1851 58.579 58.3809 58.3832C58.5767 58.1874 58.732 57.9549 58.8378 57.699C58.9437 57.4431 58.998 57.1689 58.9977 56.892V35.8283C58.998 35.5514 58.9437 35.2771 58.8378 35.0213C58.732 34.7654 58.5767 34.5329 58.3809 34.3371C58.1851 34.1413 57.9526 33.986 57.6967 33.8801C57.4408 33.7743 57.1666 33.72 56.8897 33.7202V33.7202ZM54.7817 54.7942H37.9217V37.9342H54.7817V54.7942Z" fill="url(#paint2_linear)"/>
<path d="M58.3887 18.351C58.5844 18.1554 58.7397 17.9232 58.8457 17.6676C58.9516 17.4119 59.0061 17.138 59.0061 16.8612C59.0061 16.5845 58.9516 16.3105 58.8457 16.0549C58.7397 15.7993 58.5844 15.5671 58.3887 15.3715L43.6367 0.617441C43.4411 0.421699 43.2089 0.266418 42.9533 0.160474C42.6977 0.0545303 42.4236 0 42.1469 0C41.8702 0 41.5963 0.0545303 41.3406 0.160474C41.085 0.266418 40.8528 0.421699 40.6572 0.617441L25.9032 15.3817C25.7074 15.5773 25.5521 15.8096 25.4462 16.0652C25.3402 16.3208 25.2857 16.5948 25.2857 16.8715C25.2857 17.1482 25.3402 17.4222 25.4462 17.6778C25.5521 17.9334 25.7074 18.1657 25.9032 18.3613L40.6551 33.1133C40.8507 33.309 41.083 33.4643 41.3386 33.5702C41.5942 33.6762 41.8682 33.7307 42.1449 33.7307C42.4216 33.7307 42.6956 33.6762 42.9512 33.5702C43.2068 33.4643 43.4391 33.309 43.6347 33.1133L58.3867 18.3613L58.3887 18.351ZM30.3755 16.8602L42.148 5.08774L53.9204 16.8602L42.148 28.6327L30.3755 16.8602Z" fill="url(#paint3_linear)"/>
<path d="M107.4 53.4437C107.934 54.8535 108.917 55.5584 110.348 55.5584C111.181 55.5584 111.928 55.2914 112.591 54.7573C113.253 54.2233 113.584 53.5505 113.584 52.7388C113.584 52.397 113.498 52.0019 113.328 51.5533L98.1083 13.7774C97.382 11.9618 96.5917 10.7656 95.7372 10.1889C94.9042 9.59081 93.8575 9.29176 92.5973 9.29176C91.337 9.29176 90.2797 9.59081 89.4253 10.1889C88.5922 10.7656 87.8125 11.9618 87.0863 13.7774L71.867 51.5533C71.6961 52.0019 71.6107 52.397 71.6107 52.7388C71.6107 53.5505 71.9311 54.2233 72.5719 54.7573C73.2341 55.2914 73.9817 55.5584 74.8148 55.5584C76.2673 55.5584 77.2605 54.8535 77.7945 53.4437L81.5753 43.7033H103.619L107.4 53.4437ZM101.793 39.0575H83.4016L92.5973 15.3795L101.793 39.0575Z" fill="url(#paint4_linear)"/>
<path d="M127.618 30.7269V14.7066H137.71C141.235 14.7066 143.787 15.3047 145.368 16.5009C146.949 17.6971 147.739 19.737 147.739 22.6206C147.739 25.5684 146.895 27.6617 145.208 28.9006C143.542 30.1181 140.925 30.7269 137.358 30.7269H127.618ZM124.382 55.3661C125.279 55.3661 126.037 55.0991 126.656 54.5651C127.297 54.0311 127.618 53.2728 127.618 52.2902V35.6612H137.39C139.932 35.6612 142.185 35.4369 144.151 34.9883C146.116 34.5397 147.857 33.8348 149.373 32.8736C150.911 31.8911 152.086 30.5453 152.898 28.8365C153.709 27.1063 154.115 25.0344 154.115 22.6206C154.115 17.9854 152.737 14.6532 149.982 12.624C147.226 10.5947 143.221 9.58013 137.967 9.58013H124.414C123.495 9.58013 122.715 9.88985 122.075 10.5093C121.455 11.1288 121.145 11.8871 121.145 12.7842V52.2902C121.145 53.2514 121.466 54.0097 122.107 54.5651C122.747 55.0991 123.506 55.3661 124.382 55.3661Z" fill="url(#paint5_linear)"/>
<path d="M167.156 30.7269V14.7066H177.248C180.773 14.7066 183.326 15.3047 184.906 16.5009C186.487 17.6971 187.277 19.737 187.277 22.6206C187.277 25.5684 186.433 27.6617 184.746 28.9006C183.08 30.1181 180.463 30.7269 176.896 30.7269H167.156ZM163.92 55.3661C164.817 55.3661 165.575 55.0991 166.194 54.5651C166.835 54.0311 167.156 53.2728 167.156 52.2902V35.6612H176.928C179.47 35.6612 181.723 35.4369 183.689 34.9883C185.654 34.5397 187.395 33.8348 188.911 32.8736C190.449 31.8911 191.624 30.5453 192.436 28.8365C193.247 27.1063 193.653 25.0344 193.653 22.6206C193.653 17.9854 192.276 14.6532 189.52 12.624C186.765 10.5947 182.759 9.58013 177.505 9.58013H163.952C163.033 9.58013 162.253 9.88985 161.613 10.5093C160.993 11.1288 160.684 11.8871 160.684 12.7842V52.2902C160.684 53.2514 161.004 54.0097 161.645 54.5651C162.286 55.0991 163.044 55.3661 163.92 55.3661Z" fill="url(#paint6_linear)"/>
<path d="M204.227 55.3341C205.124 55.3341 205.893 55.0671 206.534 54.5331C207.174 53.9991 207.495 53.2408 207.495 52.2582V12.656C207.495 11.6734 207.174 10.9152 206.534 10.3811C205.914 9.82577 205.167 9.54809 204.291 9.54809C203.415 9.54809 202.646 9.82577 201.984 10.3811C201.343 10.9365 201.023 11.6948 201.023 12.656V52.2582C201.023 53.2194 201.332 53.9777 201.952 54.5331C202.593 55.0671 203.351 55.3341 204.227 55.3341Z" fill="url(#paint7_linear)"/>
<defs>
<linearGradient id="paint0_linear" x1="12.644" y1="0.00222778" x2="12.644" y2="25.282" gradientUnits="userSpaceOnUse">
<stop stop-color="#DC4985"/>
<stop offset="1" stop-color="#F18DA2"/>
</linearGradient>
<linearGradient id="paint1_linear" x1="12.6399" y1="33.7202" x2="12.6399" y2="59" gradientUnits="userSpaceOnUse">
<stop stop-color="#DC4985"/>
<stop offset="1" stop-color="#F18DA2"/>
</linearGradient>
<linearGradient id="paint2_linear" x1="46.3579" y1="33.7202" x2="46.3579" y2="59" gradientUnits="userSpaceOnUse">
<stop stop-color="#DC4985"/>
<stop offset="1" stop-color="#F18DA2"/>
</linearGradient>
<linearGradient id="paint3_linear" x1="42.1459" y1="0" x2="42.1459" y2="33.7307" gradientUnits="userSpaceOnUse">
<stop stop-color="#DC4985"/>
<stop offset="1" stop-color="#F18DA2"/>
</linearGradient>
<linearGradient id="paint4_linear" x1="142.516" y1="-8.20239" x2="142.516" y2="73.8215" gradientUnits="userSpaceOnUse">
<stop stop-color="#DC4985"/>
<stop offset="0.984375" stop-color="#DE5088" stop-opacity="0.58"/>
</linearGradient>
<linearGradient id="paint5_linear" x1="142.516" y1="-8.20239" x2="142.516" y2="73.8215" gradientUnits="userSpaceOnUse">
<stop stop-color="#DC4985"/>
<stop offset="0.984375" stop-color="#DE5088" stop-opacity="0.58"/>
</linearGradient>
<linearGradient id="paint6_linear" x1="142.516" y1="-8.20239" x2="142.516" y2="73.8215" gradientUnits="userSpaceOnUse">
<stop stop-color="#DC4985"/>
<stop offset="0.984375" stop-color="#DE5088" stop-opacity="0.58"/>
</linearGradient>
<linearGradient id="paint7_linear" x1="142.516" y1="-8.20239" x2="142.516" y2="73.8215" gradientUnits="userSpaceOnUse">
<stop stop-color="#DC4985"/>
<stop offset="0.984375" stop-color="#DE5088" stop-opacity="0.58"/>
</linearGradient>
</defs>
</svg>
